<svg width="35" height="35" viewBox="0 0 35 35" fill="none" xmlns="http://www.w3.org/2000/svg">
<path fill-rule="evenodd" clip-rule="evenodd" d="M17.5 35C27.165 35 35 27.165 35 17.5C35 7.83502 27.165 0 17.5 0C7.83502 0 0 7.83502 0 17.5C0 27.165 7.83502 35 17.5 35ZM20.3284 10.6716C19.5783 9.92143 18.5609 9.5 17.5 9.5C16.4391 9.5 15.4217 9.92143 14.6716 10.6716C13.9214 11.4217 13.5 12.4391 13.5 13.5C13.5 14.5609 13.9214 15.5783 14.6716 16.3284C15.4217 17.0786 16.4391 17.5 17.5 17.5C18.5609 17.5 19.5783 17.0786 20.3284 16.3284C21.0786 15.5783 21.5 14.5609 21.5 13.5C21.5 12.4391 21.0786 11.4217 20.3284 10.6716ZM25.5 23.5C25.5 21.29 21.92 19.5 17.5 19.5C13.08 19.5 9.5 21.29 9.5 23.5V25.5H25.5V23.5Z" fill="white"/>
</svg>
