<svg width="36" height="35" viewBox="0 0 36 35" fill="none" xmlns="http://www.w3.org/2000/svg">
<path fill-rule="evenodd" clip-rule="evenodd" d="M17.8333 9C18.8942 9 19.9116 9.42143 20.6618 10.1716C21.4119 10.9217 21.8333 11.9391 21.8333 13C21.8333 14.0609 21.4119 15.0783 20.6618 15.8284C19.9116 16.5786 18.8942 17 17.8333 17C16.7725 17 15.7551 16.5786 15.0049 15.8284C14.2548 15.0783 13.8333 14.0609 13.8333 13C13.8333 11.9391 14.2548 10.9217 15.0049 10.1716C15.7551 9.42143 16.7725 9 17.8333 9ZM17.8333 19C18.0013 19 18.168 19.0026 18.3333 19.0077V24.1316H22.0152V25H9.83334V23C9.83334 20.79 13.4133 19 17.8333 19ZM20.1743 19.8362H22.7304C22.7304 19.8362 22.7304 19.8362 22.7304 19.8362H23.8785V16.1544H26.333V19.8362H30.0149V22.2908H26.333V25.9726H23.8785V25H23.8561V22.2908H20.1967V22.2907H20.1743V19.8362Z" fill="white"/>
</svg>
