<svg width="36" height="35" viewBox="0 0 36 35" fill="none" xmlns="http://www.w3.org/2000/svg">
<path fill-rule="evenodd" clip-rule="evenodd" d="M18.3333 35C27.9983 35 35.8333 27.165 35.8333 17.5C35.8333 7.83502 27.9983 0 18.3333 0C8.66835 0 0.833336 7.83502 0.833336 17.5C0.833336 27.165 8.66835 35 18.3333 35ZM20.6618 10.1716C19.9116 9.42143 18.8942 9 17.8333 9C16.7725 9 15.7551 9.42143 15.0049 10.1716C14.2548 10.9217 13.8333 11.9391 13.8333 13C13.8333 14.0609 14.2548 15.0783 15.0049 15.8284C15.7551 16.5786 16.7725 17 17.8333 17C18.8942 17 19.9116 16.5786 20.6618 15.8284C21.4119 15.0783 21.8333 14.0609 21.8333 13C21.8333 11.9391 21.4119 10.9217 20.6618 10.1716ZM18.3333 19.0077C18.168 19.0026 18.0013 19 17.8333 19C13.4133 19 9.83334 20.79 9.83334 23V25H22.0152V24.1316H18.3333V19.0077ZM22.7304 19.8362H20.1742V22.2907H20.1967V22.2908H23.8561V25H23.8785V25.9726H26.333V22.2908H30.0149V19.8362H26.333V16.1544H23.8785V19.8362H22.7304L22.7304 19.8362Z" fill="white"/>
</svg>
