<svg width="36" height="35" viewBox="0 0 36 35" fill="none" xmlns="http://www.w3.org/2000/svg">
<path fill-rule="evenodd" clip-rule="evenodd" d="M17.8333 35C27.4983 35 35.3333 27.165 35.3333 17.5C35.3333 7.83502 27.4983 0 17.8333 0C8.16834 0 0.333328 7.83502 0.333328 17.5C0.333328 27.165 8.16834 35 17.8333 35ZM21.8333 24.4903V22.4903C21.8333 22.4903 21.8333 18.4903 14.8333 18.4903C7.83333 18.4903 7.83333 22.4903 7.83333 22.4903V24.4903H21.8333ZM17.7435 11.0459C18.1281 11.6214 18.3333 12.2981 18.3333 12.9903C18.3333 13.9186 17.9646 14.8088 17.3082 15.4652C16.6518 16.1216 15.7616 16.4903 14.8333 16.4903C14.1411 16.4903 13.4644 16.2851 12.8888 15.9005C12.3133 15.5159 11.8647 14.9693 11.5998 14.3297C11.3348 13.6902 11.2655 12.9865 11.4006 12.3075C11.5356 11.6286 11.869 11.005 12.3585 10.5155C12.8479 10.026 13.4716 9.69265 14.1505 9.5576C14.8294 9.42255 15.5332 9.49186 16.1727 9.75677C16.8123 10.0217 17.3589 10.4703 17.7435 11.0459ZM23.247 20.2619C22.8911 19.5708 22.3881 18.9661 21.7733 18.4903C27.8333 18.8603 27.8333 22.4903 27.8333 22.4903V24.4903H23.8333V22.4903C23.803 21.7136 23.6029 20.9529 23.247 20.2619ZM18.9033 10.0803C19.4718 9.6923 20.145 9.48652 20.8333 9.49035C21.7616 9.49035 22.6518 9.8591 23.3082 10.5155C23.9646 11.1719 24.3333 12.0621 24.3333 12.9903C24.3333 13.9186 23.9646 14.8088 23.3082 15.4652C22.6518 16.1216 21.7616 16.4903 20.8333 16.4903C20.145 16.4942 19.4718 16.2884 18.9033 15.9003C19.5108 15.0516 19.8374 14.0341 19.8374 12.9903C19.8374 11.9466 19.5108 10.9291 18.9033 10.0803Z" fill="white"/>
</svg>
