<svg width="35" height="35" viewBox="0 0 35 35" fill="none" xmlns="http://www.w3.org/2000/svg">
	<path
		d="M17.502 20.7384C16.6432 20.7384 15.8195 20.3972 15.2122 19.7899C14.6049 19.1826 14.2637 18.3589 14.2637 17.5C14.2637 16.6411 14.6049 15.8174 15.2122 15.2101C15.8195 14.6028 16.6432 14.2616 17.502 14.2616C18.3609 14.2616 19.1846 14.6028 19.7919 15.2101C20.3992 15.8174 20.7404 16.6411 20.7404 17.5C20.7404 18.3589 20.3992 19.1826 19.7919 19.7899C19.1846 20.3972 18.3609 20.7384 17.502 20.7384V20.7384ZM24.3766 18.3975C24.4136 18.1014 24.4414 17.8053 24.4414 17.5C24.4414 17.1947 24.4136 16.8893 24.3766 16.5748L26.3289 15.0666C26.5047 14.9278 26.551 14.678 26.4399 14.4744L24.5894 11.2731C24.4784 11.0695 24.2286 10.9863 24.025 11.0695L21.7212 11.9948C21.24 11.6339 20.7404 11.3194 20.1575 11.088L19.8152 8.63613C19.7782 8.41407 19.5839 8.24753 19.3525 8.24753H15.6515C15.4202 8.24753 15.2259 8.41407 15.1889 8.63613L14.8466 11.088C14.2637 11.3194 13.764 11.6339 13.2829 11.9948L10.979 11.0695C10.7755 10.9863 10.5257 11.0695 10.4146 11.2731L8.56415 14.4744C8.44387 14.678 8.49938 14.9278 8.67518 15.0666L10.6275 16.5748C10.5904 16.8893 10.5627 17.1947 10.5627 17.5C10.5627 17.8053 10.5904 18.1014 10.6275 18.3975L8.67518 19.9334C8.49938 20.0722 8.44387 20.322 8.56415 20.5256L10.4146 23.7269C10.5257 23.9305 10.7755 24.0045 10.979 23.9305L13.2829 22.996C13.764 23.3661 14.2637 23.6807 14.8466 23.912L15.1889 26.3639C15.2259 26.5859 15.4202 26.7525 15.6515 26.7525H19.3525C19.5839 26.7525 19.7782 26.5859 19.8152 26.3639L20.1575 23.912C20.7404 23.6714 21.24 23.3661 21.7212 22.996L24.025 23.9305C24.2286 24.0045 24.4784 23.9305 24.5894 23.7269L26.4399 20.5256C26.551 20.322 26.5047 20.0722 26.3289 19.9334L24.3766 18.3975Z"
		fill="white" />
</svg>