<svg width="35" height="35" viewBox="0 0 35 35" fill="none" xmlns="http://www.w3.org/2000/svg">
	<path
		d="M17.5 9.5C18.5609 9.5 19.5783 9.92143 20.3284 10.6716C21.0786 11.4217 21.5 12.4391 21.5 13.5C21.5 14.5609 21.0786 15.5783 20.3284 16.3284C19.5783 17.0786 18.5609 17.5 17.5 17.5C16.4391 17.5 15.4217 17.0786 14.6716 16.3284C13.9214 15.5783 13.5 14.5609 13.5 13.5C13.5 12.4391 13.9214 11.4217 14.6716 10.6716C15.4217 9.92143 16.4391 9.5 17.5 9.5V9.5ZM17.5 19.5C21.92 19.5 25.5 21.29 25.5 23.5V25.5H9.50001V23.5C9.50001 21.29 13.08 19.5 17.5 19.5Z"
		fill="white" />
</svg>