<svg width="705" height="201" viewBox="0 0 705 201" fill="none" xmlns="http://www.w3.org/2000/svg">
	<path
		d="M284.52 161.6C275.347 161.6 267.347 159.733 260.52 156C253.693 152.267 248.36 147.147 244.52 140.64C240.68 134.133 238.76 126.667 238.76 118.24C238.76 111.733 239.827 105.76 241.96 100.32C244.093 94.88 247.08 90.1867 250.92 86.24C254.76 82.1867 259.293 79.0933 264.52 76.96C269.853 74.72 275.613 73.6 281.8 73.6C287.56 73.6 292.893 74.6667 297.8 76.8C302.707 78.8267 306.92 81.76 310.44 85.6C314.067 89.3333 316.84 93.76 318.76 98.88C320.68 104 321.533 109.6 321.32 115.68L321.16 122.72H253.16L249.48 108.8H302.44L299.88 111.68V108.16C299.667 105.28 298.707 102.667 297 100.32C295.4 97.9733 293.32 96.16 290.76 94.88C288.2 93.6 285.32 92.96 282.12 92.96C277.427 92.96 273.427 93.8667 270.12 95.68C266.92 97.4933 264.467 100.16 262.76 103.68C261.053 107.2 260.2 111.467 260.2 116.48C260.2 121.6 261.267 126.027 263.4 129.76C265.64 133.493 268.733 136.427 272.68 138.56C276.733 140.587 281.48 141.6 286.92 141.6C290.653 141.6 294.067 141.013 297.16 139.84C300.253 138.667 303.56 136.64 307.08 133.76L317.96 148.96C314.867 151.733 311.453 154.08 307.72 156C303.987 157.813 300.147 159.2 296.2 160.16C292.253 161.12 288.36 161.6 284.52 161.6Z"
		fill="#7F7F7F" />
	<path
		d="M390.68 161.6C382.467 161.6 374.893 160.213 367.96 157.44C361.133 154.56 355.16 150.56 350.04 145.44C345.027 140.213 341.133 134.08 338.36 127.04C335.587 119.893 334.2 112.107 334.2 103.68C334.2 95.4667 335.64 87.8933 338.52 80.96C341.4 73.92 345.453 67.84 350.68 62.72C355.907 57.4933 362.04 53.44 369.08 50.56C376.12 47.68 383.747 46.24 391.96 46.24C397.293 46.24 402.52 46.9867 407.64 48.48C412.867 49.8667 417.613 51.9467 421.88 54.72C426.253 57.4933 429.987 60.8 433.08 64.64L418.04 81.28C415.48 78.72 412.813 76.5333 410.04 74.72C407.373 72.8 404.493 71.36 401.4 70.4C398.413 69.3333 395.213 68.8 391.8 68.8C387.213 68.8 382.893 69.6533 378.84 71.36C374.893 73.0667 371.427 75.4667 368.44 78.56C365.453 81.5467 363.053 85.2267 361.24 89.6C359.533 93.8667 358.68 98.6133 358.68 103.84C358.68 109.173 359.533 114.027 361.24 118.4C362.947 122.667 365.347 126.347 368.44 129.44C371.533 132.427 375.213 134.773 379.48 136.48C383.853 138.08 388.653 138.88 393.88 138.88C397.293 138.88 400.6 138.4 403.8 137.44C407 136.48 409.933 135.147 412.6 133.44C415.373 131.733 417.827 129.76 419.96 127.52L431.64 146.24C429.08 149.12 425.613 151.733 421.24 154.08C416.973 156.427 412.173 158.293 406.84 159.68C401.507 160.96 396.12 161.6 390.68 161.6ZM448.673 160V41.6H471.073V92.64L466.593 94.56C467.766 90.72 469.846 87.2533 472.833 84.16C475.926 80.96 479.606 78.4 483.873 76.48C488.139 74.56 492.619 73.6 497.313 73.6C503.713 73.6 509.046 74.88 513.313 77.44C517.686 80 520.939 83.8933 523.073 89.12C525.313 94.24 526.433 100.587 526.433 108.16V160H503.713V109.92C503.713 106.08 503.179 102.88 502.113 100.32C501.046 97.76 499.393 95.8933 497.153 94.72C495.019 93.44 492.353 92.9067 489.153 93.12C486.593 93.12 484.193 93.5467 481.953 94.4C479.819 95.1467 477.953 96.2667 476.353 97.76C474.859 99.2533 473.633 100.96 472.673 102.88C471.819 104.8 471.393 106.88 471.393 109.12V160H460.193C457.739 160 455.553 160 453.633 160C451.713 160 450.059 160 448.673 160ZM579.884 161.6C572.844 161.6 566.497 159.68 560.844 155.84C555.19 152 550.71 146.773 547.404 140.16C544.097 133.547 542.444 125.973 542.444 117.44C542.444 108.907 544.097 101.387 547.404 94.88C550.817 88.2667 555.404 83.0933 561.164 79.36C566.924 75.52 573.484 73.6 580.844 73.6C585.004 73.6 588.79 74.24 592.204 75.52C595.724 76.6933 598.764 78.3467 601.324 80.48C603.99 82.6133 606.23 85.0667 608.044 87.84C609.857 90.6133 611.137 93.6 611.884 96.8L607.084 96V75.36H629.644V160H606.764V139.68L611.884 139.2C611.03 142.187 609.644 145.013 607.724 147.68C605.804 150.347 603.404 152.747 600.524 154.88C597.75 156.907 594.604 158.56 591.084 159.84C587.564 161.013 583.83 161.6 579.884 161.6ZM586.124 141.92C590.39 141.92 594.124 140.907 597.324 138.88C600.524 136.853 602.977 134.027 604.684 130.4C606.497 126.667 607.404 122.347 607.404 117.44C607.404 112.64 606.497 108.427 604.684 104.8C602.977 101.173 600.524 98.3467 597.324 96.32C594.124 94.1867 590.39 93.12 586.124 93.12C581.964 93.12 578.284 94.1867 575.084 96.32C571.99 98.3467 569.537 101.173 567.724 104.8C565.91 108.427 565.004 112.64 565.004 117.44C565.004 122.347 565.91 126.667 567.724 130.4C569.537 134.027 571.99 136.853 575.084 138.88C578.284 140.907 581.964 141.92 586.124 141.92ZM660.583 160V53.92H683.302V160H660.583ZM644.743 95.68V75.36H700.583V95.68H644.743Z"
		fill="#31A4FE" />
	<circle cx="100.211" cy="100.211" r="100" fill="#31A4FE" />
	<path
		d="M170.711 29.2893C189.464 48.043 200 73.4784 200 100C200 126.522 189.464 151.957 170.711 170.711C151.957 189.464 126.522 200 100 200C73.4784 200 48.043 189.464 29.2893 170.711L100 100L170.711 29.2893Z"
		fill="#3183FE" />
	<path fill-rule="evenodd" clip-rule="evenodd"
		d="M200.085 100.211L120.211 100.211C120.211 113.526 123.31 126.711 129.331 139.013C135.352 151.315 144.177 162.493 155.303 171.908C166.428 181.324 179.636 188.793 194.172 193.888C202.561 196.829 211.298 198.946 220.211 200.211C208.567 196.79 200.188 187.459 200.086 176.46H200.085V100.211Z"
		fill="#3183FE" />
</svg>