<svg width="35" height="35" viewBox="0 0 35 35" fill="none" xmlns="http://www.w3.org/2000/svg">
	<path fill-rule="evenodd" clip-rule="evenodd"
		d="M17.5 35C27.165 35 35 27.165 35 17.5C35 7.83502 27.165 0 17.5 0C7.83496 0 0 7.83502 0 17.5C0 27.165 7.83496 35 17.5 35ZM28 8C28 6.89545 27.1045 6 26 6H10C8.89551 6 8 6.89545 8 8V28C8 29.1046 8.89551 30 10 30H26C27.1045 30 28 29.1046 28 28V8ZM10 9C10 8.44769 10.4478 8 11 8H25C25.5522 8 26 8.44769 26 9C26 9.55231 25.5522 10 25 10H11C10.4478 10 10 9.55231 10 9ZM11 12C10.4478 12 10 12.4477 10 13C10 13.5523 10.4478 14 11 14H25C25.5522 14 26 13.5523 26 13C26 12.4477 25.5522 12 25 12H11ZM10 17C10 16.4477 10.4478 16 11 16H25C25.5522 16 26 16.4477 26 17C26 17.5523 25.5522 18 25 18H11C10.4478 18 10 17.5523 10 17ZM11 20C10.4478 20 10 20.4477 10 21C10 21.5523 10.4478 22 11 22H18C18.5522 22 19 21.5523 19 21C19 20.4477 18.5522 20 18 20H11Z"
		fill="white" />
</svg>