<svg width="36" height="35" viewBox="0 0 36 35" fill="none" xmlns="http://www.w3.org/2000/svg">
	<path
		d="M21.8333 22.4903V24.4903H7.83333V22.4903C7.83333 22.4903 7.83333 18.4903 14.8333 18.4903C21.8333 18.4903 21.8333 22.4903 21.8333 22.4903ZM18.3333 12.9903C18.3333 12.2981 18.1281 11.6214 17.7435 11.0459C17.3589 10.4703 16.8123 10.0217 16.1727 9.75677C15.5332 9.49186 14.8294 9.42255 14.1505 9.5576C13.4716 9.69265 12.8479 10.026 12.3585 10.5155C11.869 11.005 11.5356 11.6286 11.4006 12.3075C11.2655 12.9865 11.3348 13.6902 11.5998 14.3297C11.8647 14.9693 12.3133 15.5159 12.8888 15.9005C13.4644 16.2851 14.1411 16.4903 14.8333 16.4903C15.7616 16.4903 16.6518 16.1216 17.3082 15.4652C17.9646 14.8088 18.3333 13.9186 18.3333 12.9903V12.9903ZM21.7733 18.4903C22.3881 18.9661 22.8911 19.5708 23.247 20.2619C23.6029 20.9529 23.803 21.7136 23.8333 22.4903V24.4903H27.8333V22.4903C27.8333 22.4903 27.8333 18.8603 21.7733 18.4903ZM20.8333 9.49035C20.145 9.48652 19.4718 9.6923 18.9033 10.0803C19.5108 10.9291 19.8374 11.9466 19.8374 12.9903C19.8374 14.0341 19.5108 15.0516 18.9033 15.9003C19.4718 16.2884 20.145 16.4942 20.8333 16.4903C21.7616 16.4903 22.6518 16.1216 23.3082 15.4652C23.9646 14.8088 24.3333 13.9186 24.3333 12.9903C24.3333 12.0621 23.9646 11.1719 23.3082 10.5155C22.6518 9.8591 21.7616 9.49035 20.8333 9.49035V9.49035Z"
		fill="white" />
</svg>