<svg width="16" height="16" viewBox="0 0 23 16" fill="none" xmlns="http://www.w3.org/2000/svg">
	<path
		d="M16.1 13.8667V16L0 16L0 13.8667C0 13.8667 0 9.60002 8.05 9.60002C16.1 9.60002 16.1 13.8667 16.1 13.8667ZM12.075 3.73338C12.075 2.995 11.8389 2.2732 11.3967 1.65925C10.9544 1.04531 10.3258 0.566804 9.5903 0.284238C8.85483 0.00167217 8.04553 -0.07226 7.26476 0.071791C6.48399 0.215842 5.7668 0.571406 5.2039 1.09352C4.64099 1.61563 4.25764 2.28085 4.10234 3.00504C3.94703 3.72923 4.02674 4.47988 4.33139 5.16206C4.63603 5.84423 5.15192 6.4273 5.81383 6.83752C6.47574 7.24774 7.25393 7.4667 8.05 7.4667C9.1175 7.4667 10.1413 7.07337 10.8961 6.37323C11.6509 5.6731 12.075 4.72351 12.075 3.73338ZM16.031 9.60002C16.738 10.1075 17.3164 10.7525 17.7257 11.4896C18.135 12.2268 18.3652 13.0381 18.4 13.8667V16H23V13.8667C23 13.8667 23 9.99469 16.031 9.60002ZM14.95 5.60841e-05C14.1584 -0.00403213 13.3843 0.215475 12.7305 0.629387C13.4291 1.5347 13.8047 2.62009 13.8047 3.73338C13.8047 4.84667 13.4291 5.93205 12.7305 6.83737C13.3843 7.25128 14.1584 7.47078 14.95 7.4667C16.0175 7.4667 17.0413 7.07337 17.7961 6.37323C18.5509 5.6731 18.975 4.72351 18.975 3.73338C18.975 2.74324 18.5509 1.79365 17.7961 1.09352C17.0413 0.393387 16.0175 5.60841e-05 14.95 5.60841e-05Z"
		fill="white" />
</svg>