<svg width="26" height="26" viewBox="0 0 26 18" fill="none" xmlns="http://www.w3.org/2000/svg">
	<path fill-rule="evenodd" clip-rule="evenodd"
		d="M10.8284 1.17157C10.0783 0.421427 9.06087 0 8 0C6.93913 0 5.92172 0.421427 5.17157 1.17157C4.42143 1.92172 4 2.93913 4 4C4 5.06087 4.42143 6.07828 5.17157 6.82843C5.92172 7.57857 6.93913 8 8 8C8.06619 8 8.13222 7.99836 8.19802 7.9951C7.93777 7.36871 7.80005 6.69145 7.80005 5.99999C7.80005 4.62086 8.3479 3.29822 9.32309 2.32303C9.78155 1.86458 10.3168 1.50057 10.8986 1.24353C10.8755 1.21928 10.8521 1.19529 10.8284 1.17157ZM8 10C8.62048 10 9.22441 10.0353 9.80421 10.102C10.238 10.44 10.7208 10.7055 11.2336 10.8907C9.56042 11.0651 8.03221 11.4848 6.80589 12.0979C5.2304 12.8857 3.80005 14.1959 3.80005 16L0 16V14C0 11.79 3.58 10 8 10ZM13 12C17.42 12 21 13.79 21 16L21 16C21 13.79 17.42 12 13 12C12.4022 12 11.8198 12.0327 11.2595 12.0948C11.8198 12.0327 12.4022 12 13 12ZM26 16L22.2001 16C22.2001 14.1959 20.7697 12.8857 19.1942 12.0979C17.9679 11.4848 16.4397 11.0651 14.7665 10.8907C15.2793 10.7055 15.7621 10.44 16.1959 10.102C16.7757 10.0353 17.3796 10 18 10C22.42 10 26 11.79 26 14V16ZM18.2 5.99999C18.2 6.69145 18.0623 7.36871 17.8021 7.99511C17.8678 7.99836 17.9338 8 18 8C19.0609 8 20.0783 7.57857 20.8284 6.82843C21.5786 6.07828 22 5.06087 22 4C22 2.93913 21.5786 1.92172 20.8284 1.17157C20.0783 0.421427 19.0609 0 18 0C16.9391 0 15.9217 0.421427 15.1716 1.17157C15.1479 1.19528 15.1245 1.21926 15.1014 1.2435C15.6833 1.50054 16.2185 1.86456 16.677 2.32303C17.6522 3.29822 18.2 4.62086 18.2 5.99999ZM15.8285 3.17156C15.42 2.76308 14.9323 2.45207 14.4014 2.25351C14.4014 2.25351 14.4014 2.25352 14.4014 2.25353C14.9322 2.4521 15.42 2.7631 15.8284 3.17157C16.5786 3.92172 17 4.93913 17 6C17 6.6108 16.8603 7.2072 16.5986 7.74647C16.5986 7.74648 16.5986 7.74648 16.5986 7.74648C16.8603 7.2072 17 6.6108 17 5.99999C17 4.93912 16.5786 3.92171 15.8285 3.17156Z"
		fill="white" />
	<path
		d="M13 2C14.0609 2 15.0783 2.42143 15.8284 3.17157C16.5786 3.92172 17 4.93913 17 6C17 7.06087 16.5786 8.07828 15.8284 8.82843C15.0783 9.57857 14.0609 10 13 10C11.9391 10 10.9217 9.57857 10.1716 8.82843C9.42143 8.07828 9 7.06087 9 6C9 4.93913 9.42143 3.92172 10.1716 3.17157C10.9217 2.42143 11.9391 2 13 2V2ZM13 12C17.42 12 21 13.79 21 16V18H5V16C5 13.79 8.58 12 13 12Z"
		fill="white" />
</svg>