<svg width="36" height="35" viewBox="0 0 36 35" fill="none" xmlns="http://www.w3.org/2000/svg">
<circle cx="18" cy="17.5" r="17.5" fill="#31A4FE"/>
<path fill-rule="evenodd" clip-rule="evenodd" d="M25.2 10.3H10.8C9.801 10.3 9 11.101 9 12.1V22.9C9 23.3774 9.18964 23.8353 9.52721 24.1728C9.86477 24.5104 10.3226 24.7 10.8 24.7H25.2C25.6774 24.7 26.1352 24.5104 26.4728 24.1728C26.8104 23.8353 27 23.3774 27 22.9V12.1C27 11.101 26.19 10.3 25.2 10.3ZM10.9988 14.5493L17.9978 18.9227L17.9991 18.9248L25.0012 14.5494V12.1926L18.0001 16.5673L10.9988 12.1924V14.5493Z" fill="white"/>
</svg>
