<svg width="19" height="19" viewBox="0 0 19 19" fill="none" xmlns="http://www.w3.org/2000/svg">
	<path
		d="M9.50204 12.7384C8.64318 12.7384 7.81948 12.3972 7.21217 11.7899C6.60486 11.1826 6.26368 10.3589 6.26368 9.50001C6.26368 8.64114 6.60486 7.81745 7.21217 7.21013C7.81948 6.60282 8.64318 6.26164 9.50204 6.26164C10.3609 6.26164 11.1846 6.60282 11.7919 7.21013C12.3992 7.81745 12.7404 8.64114 12.7404 9.50001C12.7404 10.3589 12.3992 11.1826 11.7919 11.7899C11.1846 12.3972 10.3609 12.7384 9.50204 12.7384ZM16.3766 10.3975C16.4136 10.1014 16.4414 9.80534 16.4414 9.50001C16.4414 9.19467 16.4136 8.88934 16.3766 8.57476L18.3289 7.0666C18.5047 6.92782 18.551 6.678 18.4399 6.47445L16.5894 3.27309C16.4784 3.06953 16.2286 2.98626 16.025 3.06953L13.7212 3.99478C13.24 3.63394 12.7404 3.31935 12.1575 3.08804L11.8152 0.636132C11.7782 0.414073 11.5839 0.247528 11.3525 0.247528H7.65155C7.42024 0.247528 7.22593 0.414073 7.18892 0.636132L6.84658 3.08804C6.26368 3.31935 5.76404 3.63394 5.28291 3.99478L2.97905 3.06953C2.77549 2.98626 2.52567 3.06953 2.41464 3.27309L0.564149 6.47445C0.443867 6.678 0.499382 6.92782 0.675179 7.0666L2.62745 8.57476C2.59044 8.88934 2.56268 9.19467 2.56268 9.50001C2.56268 9.80534 2.59044 10.1014 2.62745 10.3975L0.675179 11.9334C0.499382 12.0722 0.443867 12.322 0.564149 12.5256L2.41464 15.7269C2.52567 15.9305 2.77549 16.0045 2.97905 15.9305L5.28291 14.996C5.76404 15.3661 6.26368 15.6807 6.84658 15.912L7.18892 18.3639C7.22593 18.5859 7.42024 18.7525 7.65155 18.7525H11.3525C11.5839 18.7525 11.7782 18.5859 11.8152 18.3639L12.1575 15.912C12.7404 15.6714 13.24 15.3661 13.7212 14.996L16.025 15.9305C16.2286 16.0045 16.4784 15.9305 16.5894 15.7269L18.4399 12.5256C18.551 12.322 18.5047 12.0722 18.3289 11.9334L16.3766 10.3975Z"
		fill="white" />
</svg>