<svg width="35" height="35" viewBox="0 0 35 35" fill="none" xmlns="http://www.w3.org/2000/svg">
<path fill-rule="evenodd" clip-rule="evenodd" d="M17.5 35C27.165 35 35 27.165 35 17.5C35 7.83502 27.165 0 17.5 0C7.83502 0 0 7.83502 0 17.5C0 27.165 7.83502 35 17.5 35ZM15.2122 19.7899C15.8195 20.3972 16.6432 20.7384 17.502 20.7384C18.3609 20.7384 19.1846 20.3972 19.7919 19.7899C20.3992 19.1826 20.7404 18.3589 20.7404 17.5C20.7404 16.6412 20.3992 15.8175 19.7919 15.2102C19.1846 14.6029 18.3609 14.2617 17.502 14.2617C16.6432 14.2617 15.8195 14.6029 15.2122 15.2102C14.6048 15.8175 14.2637 16.6412 14.2637 17.5C14.2637 18.3589 14.6048 19.1826 15.2122 19.7899ZM24.4414 17.5C24.4414 17.8054 24.4136 18.1014 24.3766 18.3975L26.3289 19.9334C26.5047 20.0722 26.551 20.322 26.4399 20.5256L24.5894 23.727C24.4784 23.9305 24.2286 24.0045 24.025 23.9305L21.7212 22.996C21.24 23.3661 20.7404 23.6714 20.1575 23.912L19.8151 26.3639C19.7781 26.586 19.5838 26.7525 19.3525 26.7525H15.6515C15.4202 26.7525 15.2259 26.586 15.1889 26.3639L14.8466 23.912C14.2637 23.6807 13.764 23.3661 13.2829 22.996L10.979 23.9305C10.7755 24.0045 10.5257 23.9305 10.4146 23.727L8.56413 20.5256C8.44385 20.322 8.49937 20.0722 8.67516 19.9334L10.6274 18.3975C10.5904 18.1014 10.5627 17.8054 10.5627 17.5C10.5627 17.1947 10.5904 16.8894 10.6274 16.5748L8.67516 15.0666C8.49937 14.9278 8.44385 14.678 8.56413 14.4745L10.4146 11.2731C10.5257 11.0696 10.7755 10.9863 10.979 11.0696L13.2829 11.9948C13.764 11.634 14.2637 11.3194 14.8466 11.0881L15.1889 8.63616C15.2259 8.4141 15.4202 8.24756 15.6515 8.24756H19.3525C19.5838 8.24756 19.7781 8.4141 19.8151 8.63616L20.1575 11.0881C20.7404 11.3194 21.24 11.634 21.7212 11.9948L24.025 11.0696C24.2286 10.9863 24.4784 11.0696 24.5894 11.2731L26.4399 14.4745C26.551 14.678 26.5047 14.9278 26.3289 15.0666L24.3766 16.5748C24.4136 16.8894 24.4414 17.1947 24.4414 17.5Z" fill="white"/>
</svg>
