<svg width="17" height="17" viewBox="0 0 17 17" fill="none" xmlns="http://www.w3.org/2000/svg">
	<path
		d="M8.5 0.5C9.56087 0.5 10.5783 0.921427 11.3284 1.67157C12.0786 2.42172 12.5 3.43913 12.5 4.5C12.5 5.56087 12.0786 6.57828 11.3284 7.32843C10.5783 8.07857 9.56087 8.5 8.5 8.5C7.43913 8.5 6.42172 8.07857 5.67157 7.32843C4.92143 6.57828 4.5 5.56087 4.5 4.5C4.5 3.43913 4.92143 2.42172 5.67157 1.67157C6.42172 0.921427 7.43913 0.5 8.5 0.5V0.5ZM8.5 10.5C12.92 10.5 16.5 12.29 16.5 14.5V16.5H0.5V14.5C0.5 12.29 4.08 10.5 8.5 10.5Z"
		fill="white" />
</svg>